<svg width="100" height="32" viewBox="0 0 100 32" fill="none" xmlns="http://www.w3.org/2000/svg">
<path d="M13.389 0.0548786C17.5541 1.18025 19.4918 1.75246 23.6569 2.87782C24.0883 3.30722 24.1398 3.57252 23.6569 4.11283L13.6722 9.87621C12.9397 10.0751 12.5094 10.0902 11.6866 9.87621C11.6866 9.87621 4.93561 8.11191 3.51733 7.87667C2.09905 7.64143 1.70193 9.35078 2.43944 9.87621C3.17694 10.4016 11.1193 15.0515 11.1193 15.0515C11.5328 15.4317 11.6755 15.7204 11.6866 16.4041V28.3425C11.6866 28.7542 11.2638 29.3368 10.2683 28.7542L0.624042 22.8732C0.127474 22.5646 0.0122973 22.3715 0 21.9322V8.81763C0 7.75905 0.399375 7.14983 1.24808 6.64166L11.3462 0.466618C11.844 0.157203 12.1976 -0.121513 13.389 0.0548786Z" fill="#FEFDFC"/>
<path d="M26.3359 11.5626L23.8335 10.2019C23.3081 9.91081 22.9569 9.9219 22.252 10.3176C21.3118 10.7656 21.0387 11.0018 21.6826 11.3593L23.8335 12.5168C24.5911 12.9932 24.6874 13.2445 24.1498 13.6743L14.7239 18.362C14.2222 18.6527 14.041 18.8679 14.0281 19.4037C14.0281 19.4037 13.9649 30.5149 14.0281 31.2673C14.0912 32.0196 14.6931 32.1176 15.3565 31.8957L26.617 25.8769C26.9544 25.6439 26.9922 25.4949 26.9965 25.0752V13.327C26.9947 12.5872 27.095 11.9677 26.3359 11.5626Z" fill="#FEFDFC"/>
<path d="M42.8281 24C41.7515 24 40.7346 23.8357 39.7776 23.507C38.8355 23.1784 38.0056 22.6854 37.2879 22.0281C36.5851 21.3708 36.0243 20.5418 35.6056 19.5409C35.2019 18.54 35 17.3599 35 16.0005C35 14.6411 35.2019 13.461 35.6056 12.4601C36.0243 11.4443 36.5851 10.6077 37.2879 9.95044C38.0056 9.27821 38.8355 8.78524 39.7776 8.47153C40.7346 8.14289 41.7515 7.98604 42.8281 8.00097C43.9048 8.01591 44.9141 8.1877 45.8562 8.51635C46.8132 8.83005 47.6431 9.32302 48.3459 9.99525C49.0487 10.6525 49.602 11.4816 50.0057 12.4825C50.4244 13.4684 50.6338 14.6411 50.6338 16.0005C50.6338 17.569 50.2749 18.9359 49.5571 20.1011C48.8394 21.2663 47.7253 22.0879 46.2151 22.5659L46.2375 22.6107C46.4767 22.536 46.7459 22.4613 47.045 22.3867C47.344 22.312 47.6207 22.2597 47.8749 22.2298L51.1497 21.8489V24H42.8281ZM42.8281 10.1969C42.0655 10.1969 41.3402 10.3239 40.6524 10.5778C39.9795 10.8169 39.3813 11.1829 38.858 11.6758C38.3496 12.1688 37.9458 12.7813 37.6468 13.5132C37.3477 14.2303 37.1982 15.0594 37.1982 16.0005C37.1982 16.9416 37.3477 17.7707 37.6468 18.4877C37.9458 19.2048 38.3496 19.8098 38.858 20.3027C39.3664 20.7957 39.9571 21.1692 40.63 21.4231C41.3178 21.6771 42.0505 21.8041 42.8281 21.8041C43.7403 21.8041 44.5403 21.6621 45.2281 21.3783C45.9309 21.0795 46.5141 20.6762 46.9777 20.1683C47.4562 19.6455 47.8151 19.033 48.0543 18.3309C48.3085 17.6138 48.4356 16.837 48.4356 16.0005C48.4356 15.0594 48.2786 14.2303 47.9646 13.5132C47.6655 12.7813 47.2543 12.1763 46.7309 11.6982C46.2225 11.2053 45.6319 10.8318 44.959 10.5778C44.2861 10.3239 43.5758 10.1969 42.8281 10.1969Z" fill="#FEFDFC"/>
<path d="M55.9877 23.9776C55.1803 23.9776 54.5074 23.8207 53.969 23.507C53.4307 23.1933 53.0045 22.7751 52.6905 22.2522C52.3765 21.7294 52.1522 21.1244 52.0176 20.4372C51.898 19.75 51.8382 19.0405 51.8382 18.3085V12.5945H54.0363V18.3085C54.0363 19.5035 54.2606 20.3774 54.7092 20.9302C55.1728 21.4829 55.8606 21.7592 56.7728 21.7592C57.0121 21.7592 57.3111 21.6995 57.67 21.58C58.0289 21.4455 58.3728 21.1991 58.7018 20.8405C59.0308 20.482 59.3074 19.9816 59.5317 19.3392C59.771 18.6819 59.8906 17.8304 59.8906 16.7848V12.5945H62.0887V23.7983H59.8906V21.6472C59.8906 21.4082 59.9055 21.1542 59.9354 20.8853C59.9803 20.6165 60.0252 20.37 60.07 20.1459L60.0252 20.1235C59.9205 20.6463 59.7635 21.1468 59.5541 21.6248C59.3448 22.0879 59.0756 22.4987 58.7467 22.8572C58.4177 23.2008 58.0214 23.4772 57.5579 23.6863C57.1093 23.8805 56.5859 23.9776 55.9877 23.9776Z" fill="#FEFDFC"/>
<path d="M63.7656 23.8431V8.15783H65.9637V14.0958C65.9637 14.3498 65.9338 14.6262 65.874 14.9249C65.8142 15.2237 65.7469 15.5001 65.6721 15.754H65.717C65.7918 15.515 65.889 15.2536 66.0086 14.9697C66.1432 14.6859 66.3002 14.4544 66.4796 14.2751C66.7338 14.0062 67.0329 13.7672 67.3768 13.5581C67.7357 13.334 68.1021 13.1473 68.4759 12.9979C68.8647 12.8335 69.2609 12.714 69.6647 12.6393C70.0684 12.5497 70.4572 12.5049 70.831 12.5049C72.4909 12.5198 73.7918 12.9979 74.7339 13.939C75.6909 14.8652 76.1694 16.2993 76.1694 18.2412C76.1694 20.1832 75.6909 21.6248 74.7339 22.5659C73.7918 23.507 72.4909 23.9776 70.831 23.9776C70.4572 23.9776 70.0684 23.9402 69.6647 23.8656C69.2609 23.7909 68.8647 23.6788 68.4759 23.5294C68.1021 23.3801 67.7357 23.2083 67.3768 23.0141C67.0329 22.8049 66.7338 22.5659 66.4796 22.297C66.3002 22.1178 66.1432 21.8862 66.0086 21.6024C65.889 21.3186 65.7918 21.0571 65.717 20.8181L65.6721 20.8405C65.7469 21.0795 65.8142 21.3484 65.874 21.6472C65.9338 21.946 65.9637 22.2223 65.9637 22.4763V23.8431H63.7656ZM65.9637 18.2412C65.9637 18.8388 66.0833 19.3766 66.3226 19.8546C66.5768 20.3326 66.8983 20.736 67.2871 21.0646C67.6759 21.3933 68.117 21.6472 68.6105 21.8265C69.1189 21.9908 69.6198 22.0729 70.1133 22.0729C71.489 22.0729 72.4759 21.7667 73.0741 21.1542C73.6722 20.5418 73.9713 19.5708 73.9713 18.2412C73.9713 16.9267 73.6647 15.9482 73.0516 15.3059C72.4535 14.6635 71.474 14.3349 70.1133 14.3199C69.6198 14.3199 69.1189 14.4095 68.6105 14.5888C68.117 14.7681 67.6759 15.0295 67.2871 15.3731C66.8983 15.7017 66.5768 16.1125 66.3226 16.6055C66.0833 17.0835 65.9637 17.6288 65.9637 18.2412Z" fill="#FEFDFC"/>
<path d="M82.9079 23.9776C82.0855 23.9776 81.3004 23.8656 80.5527 23.6415C79.8051 23.4025 79.1471 23.0439 78.5789 22.5659C78.0256 22.0879 77.5845 21.4904 77.2555 20.7733C76.9265 20.0563 76.7621 19.2122 76.7621 18.2412C76.7621 17.2703 76.9265 16.4262 77.2555 15.7092C77.5845 14.9921 78.0256 14.3946 78.5789 13.9166C79.1471 13.4386 79.8051 13.0875 80.5527 12.8634C81.3004 12.6244 82.0855 12.5049 82.9079 12.5049C83.7303 12.5049 84.5004 12.6244 85.2182 12.8634C85.9509 13.1024 86.5864 13.461 87.1248 13.939C87.6631 14.4021 88.0893 14.9921 88.4033 15.7092C88.7173 16.4262 88.8743 17.2703 88.8743 18.2412C88.8743 18.4056 88.8743 18.5176 88.8743 18.5774C88.8743 18.6222 88.8594 18.7193 88.8295 18.8687H79.0499C79.2144 19.989 79.6481 20.8256 80.3509 21.3783C81.0537 21.931 81.921 22.1999 82.9528 22.185C83.8201 22.17 84.5752 22.0057 85.2182 21.692C85.8762 21.3783 86.3621 20.8032 86.6762 19.9666L88.6949 20.2355C88.4855 20.9078 88.1865 21.4829 87.7977 21.9609C87.4238 22.4389 86.9827 22.8273 86.4743 23.1261C85.9659 23.4099 85.4051 23.6265 84.792 23.7759C84.1939 23.9104 83.5659 23.9776 82.9079 23.9776ZM82.9528 14.2303C82.4593 14.2303 81.9658 14.3274 81.4724 14.5216C80.9789 14.7008 80.5453 14.9847 80.1714 15.3731C79.7976 15.7465 79.4985 16.2246 79.2742 16.8072C79.0649 17.3898 78.9901 18.0769 79.0499 18.8687C79.1396 18.5699 79.2368 18.3309 79.3415 18.1516C79.4611 17.9724 79.5957 17.8379 79.7453 17.7483C79.9098 17.6586 80.0892 17.5989 80.2836 17.569C80.4929 17.5391 80.7322 17.5242 81.0013 17.5242H86.7883C86.6238 16.3739 86.1977 15.5449 85.5098 15.037C84.8369 14.5141 83.9846 14.2452 82.9528 14.2303Z" fill="#FEFDFC"/>
<path d="M88.3588 12.6393H91.1625L93.9439 16.1573C94.0186 16.2619 94.071 16.3814 94.1009 16.5159C94.1457 16.6503 94.1682 16.7848 94.1682 16.9192H94.213C94.213 16.6204 94.2953 16.3665 94.4598 16.1573L97.2187 12.6393H100L95.6486 18.1964L100 23.8431H97.2411L94.4373 20.2355C94.3626 20.131 94.3028 20.0114 94.2579 19.877C94.228 19.7276 94.213 19.5932 94.213 19.4737H94.1682C94.1682 19.5932 94.1457 19.7276 94.1009 19.877C94.056 20.0114 93.9962 20.131 93.9214 20.2355L91.1401 23.8431H88.3588L92.7327 18.1964L88.3588 12.6393Z" fill="#FEFDFC"/>
</svg>
